<?xml version="1.0" encoding="utf-8"?>
<!-- Generator: Adobe Illustrator 23.0.3, SVG Export Plug-In . SVG Version: 6.00 Build 0)  -->
<svg version="1.1" id="Layer_1" xmlns="http://www.w3.org/2000/svg" xmlns:xlink="http://www.w3.org/1999/xlink" x="0px" y="0px"
	 viewBox="0 0 958 285" style="enable-background:new 0 0 958 285;" xml:space="preserve">
<style type="text/css">
	.st0{fill:#FFFFFF;}
</style>
<path class="st0" d="M250.74,0.01L11.91,0l0,0h0C9,0,6.65,2.4,6.65,5.35v185.58c0,1.73,0.82,3.36,2.21,4.36l117.66,88.18
	c1.41,1.02,3.06,1.53,4.7,1.53l0.01,0.01c0,0,0,0,0,0l0,0c1.65,0,3.29-0.51,4.7-1.53l117.84-88.18c1.39-1,2.21-2.63,2.21-4.36V5.36
	C255.99,2.4,253.64,0.01,250.74,0.01z M131.32,99.85c-0.07,0-0.29,0.02-0.34,0.2l-36.22,63.46c-0.45,0.8-1.3,1.3-2.22,1.3
	l-29.56-0.03c-0.93,0-1.75-0.49-2.21-1.31c-0.46-0.81-0.46-1.79,0-2.6L117.67,60.8c0.46-0.81,1.3-1.31,2.22-1.31l11.42,0.01h0h0
	l11.42-0.01c0.92,0,1.77,0.5,2.22,1.31l56.92,100.08c0.46,0.82,0.46,1.79,0,2.6c-0.46,0.82-1.29,1.31-2.21,1.31l-29.56,0.03
	c-0.91,0-1.76-0.5-2.22-1.3l-36.22-63.46C131.56,99.87,131.39,99.85,131.32,99.85C131.32,99.85,131.32,99.85,131.32,99.85
	C131.32,99.85,131.32,99.85,131.32,99.85z"/>
<g>
	<path class="st0" d="M398.13,244.35c-2.56,0-4.24-1.2-5.04-3.6l-1.6-7.92c-1.71,1.92-3.49,3.65-5.36,5.2
		c-1.87,1.55-3.88,2.88-6.04,4c-2.16,1.12-4.48,1.99-6.96,2.6s-5.16,0.92-8.04,0.92c-4.48,0-8.59-0.93-12.32-2.8
		c-3.73-1.87-6.95-4.57-9.64-8.12c-2.69-3.55-4.77-7.93-6.24-13.16c-1.47-5.23-2.2-11.2-2.2-17.92c0-6.08,0.83-11.73,2.48-16.96
		c1.65-5.23,4.03-9.76,7.12-13.6c3.09-3.84,6.8-6.84,11.12-9c4.32-2.16,9.17-3.24,14.56-3.24c4.59,0,8.51,0.73,11.76,2.2
		c3.25,1.47,6.16,3.43,8.72,5.88v-43.36h19.76v118.88H398.13z M371.81,229.87c4.11,0,7.6-0.85,10.48-2.56
		c2.88-1.71,5.6-4.13,8.16-7.28v-36.8c-2.24-2.72-4.68-4.64-7.32-5.76c-2.64-1.12-5.48-1.68-8.52-1.68c-2.99,0-5.69,0.56-8.12,1.68
		c-2.43,1.12-4.48,2.81-6.16,5.08c-1.68,2.27-2.97,5.15-3.88,8.64c-0.91,3.49-1.36,7.61-1.36,12.36c0,4.8,0.39,8.87,1.16,12.2
		c0.77,3.33,1.88,6.05,3.32,8.16c1.44,2.11,3.2,3.63,5.28,4.56C366.93,229.4,369.25,229.87,371.81,229.87z"/>
	<path class="st0" d="M463.89,160.99c5.17,0,9.93,0.83,14.28,2.48c4.35,1.65,8.09,4.07,11.24,7.24c3.15,3.17,5.6,7.07,7.36,11.68
		c1.76,4.61,2.64,9.88,2.64,15.8c0,1.49-0.07,2.73-0.2,3.72c-0.13,0.99-0.37,1.76-0.72,2.32c-0.35,0.56-0.81,0.96-1.4,1.2
		c-0.59,0.24-1.33,0.36-2.24,0.36h-50.72c0.59,8.43,2.85,14.61,6.8,18.56c3.95,3.95,9.17,5.92,15.68,5.92c3.2,0,5.96-0.37,8.28-1.12
		c2.32-0.75,4.35-1.57,6.08-2.48c1.73-0.91,3.25-1.73,4.56-2.48c1.31-0.75,2.57-1.12,3.8-1.12c0.8,0,1.49,0.16,2.08,0.48
		c0.59,0.32,1.09,0.77,1.52,1.36l5.76,7.2c-2.19,2.56-4.64,4.71-7.36,6.44c-2.72,1.73-5.56,3.12-8.52,4.16
		c-2.96,1.04-5.97,1.77-9.04,2.2s-6.04,0.64-8.92,0.64c-5.71,0-11.01-0.95-15.92-2.84c-4.91-1.89-9.17-4.69-12.8-8.4
		c-3.63-3.71-6.48-8.29-8.56-13.76c-2.08-5.47-3.12-11.8-3.12-19c0-5.6,0.91-10.87,2.72-15.8c1.81-4.93,4.41-9.23,7.8-12.88
		c3.39-3.65,7.52-6.55,12.4-8.68C452.25,162.05,457.75,160.99,463.89,160.99z M464.29,175.15c-5.76,0-10.27,1.63-13.52,4.88
		c-3.25,3.25-5.33,7.87-6.24,13.84h37.12c0-2.56-0.35-4.97-1.04-7.24c-0.69-2.27-1.76-4.25-3.2-5.96s-3.25-3.05-5.44-4.04
		C469.78,175.64,467.22,175.15,464.29,175.15z"/>
	<path class="st0" d="M552.37,244.35h-17.92l-32.64-82.08h16.4c1.44,0,2.65,0.35,3.64,1.04c0.99,0.69,1.67,1.57,2.04,2.64
		l15.84,43.84c0.91,2.56,1.67,5.07,2.28,7.52c0.61,2.45,1.16,4.91,1.64,7.36c0.48-2.45,1.03-4.91,1.64-7.36
		c0.61-2.45,1.4-4.96,2.36-7.52l16.24-43.84c0.37-1.07,1.04-1.95,2-2.64c0.96-0.69,2.11-1.04,3.44-1.04h15.6L552.37,244.35z"/>
	<path class="st0" d="M698.85,186.51c0,8.48-1.41,16.27-4.24,23.36c-2.83,7.09-6.8,13.2-11.92,18.32s-11.28,9.09-18.48,11.92
		c-7.2,2.83-15.17,4.24-23.92,4.24h-44.16V128.67h44.16c8.75,0,16.72,1.43,23.92,4.28c7.2,2.85,13.36,6.83,18.48,11.92
		c5.12,5.09,9.09,11.19,11.92,18.28C697.43,170.24,698.85,178.03,698.85,186.51z M676.85,186.51c0-6.35-0.85-12.04-2.56-17.08
		c-1.71-5.04-4.13-9.31-7.28-12.8c-3.15-3.49-6.97-6.17-11.48-8.04c-4.51-1.87-9.59-2.8-15.24-2.8h-22.48v81.44h22.48
		c5.65,0,10.73-0.93,15.24-2.8c4.51-1.87,8.33-4.55,11.48-8.04c3.15-3.49,5.57-7.76,7.28-12.8
		C675.99,198.55,676.85,192.86,676.85,186.51z"/>
	<path class="st0" d="M746.93,160.99c5.17,0,9.93,0.83,14.28,2.48c4.35,1.65,8.09,4.07,11.24,7.24c3.15,3.17,5.6,7.07,7.36,11.68
		c1.76,4.61,2.64,9.88,2.64,15.8c0,1.49-0.07,2.73-0.2,3.72c-0.13,0.99-0.37,1.76-0.72,2.32c-0.35,0.56-0.81,0.96-1.4,1.2
		s-1.33,0.36-2.24,0.36h-50.72c0.59,8.43,2.85,14.61,6.8,18.56c3.95,3.95,9.17,5.92,15.68,5.92c3.2,0,5.96-0.37,8.28-1.12
		c2.32-0.75,4.35-1.57,6.08-2.48c1.73-0.91,3.25-1.73,4.56-2.48c1.31-0.75,2.57-1.12,3.8-1.12c0.8,0,1.49,0.16,2.08,0.48
		c0.59,0.32,1.09,0.77,1.52,1.36l5.76,7.2c-2.19,2.56-4.64,4.71-7.36,6.44c-2.72,1.73-5.56,3.12-8.52,4.16s-5.97,1.77-9.04,2.2
		c-3.07,0.43-6.04,0.64-8.92,0.64c-5.71,0-11.01-0.95-15.92-2.84c-4.91-1.89-9.17-4.69-12.8-8.4c-3.63-3.71-6.48-8.29-8.56-13.76
		c-2.08-5.47-3.12-11.8-3.12-19c0-5.6,0.91-10.87,2.72-15.8c1.81-4.93,4.41-9.23,7.8-12.88c3.39-3.65,7.52-6.55,12.4-8.68
		C735.29,162.05,740.79,160.99,746.93,160.99z M747.33,175.15c-5.76,0-10.27,1.63-13.52,4.88c-3.25,3.25-5.33,7.87-6.24,13.84h37.12
		c0-2.56-0.35-4.97-1.04-7.24c-0.69-2.27-1.76-4.25-3.2-5.96s-3.25-3.05-5.44-4.04C752.82,175.64,750.26,175.15,747.33,175.15z"/>
	<path class="st0" d="M845.64,178.27c-0.53,0.85-1.09,1.45-1.68,1.8c-0.59,0.35-1.33,0.52-2.24,0.52c-0.96,0-1.99-0.27-3.08-0.8
		c-1.09-0.53-2.36-1.13-3.8-1.8c-1.44-0.67-3.08-1.27-4.92-1.8c-1.84-0.53-4.01-0.8-6.52-0.8c-3.89,0-6.96,0.83-9.2,2.48
		c-2.24,1.65-3.36,3.81-3.36,6.48c0,1.76,0.57,3.24,1.72,4.44c1.15,1.2,2.67,2.25,4.56,3.16c1.89,0.91,4.04,1.72,6.44,2.44
		c2.4,0.72,4.85,1.51,7.36,2.36c2.51,0.85,4.96,1.83,7.36,2.92c2.4,1.09,4.55,2.48,6.44,4.16c1.89,1.68,3.41,3.69,4.56,6.04
		c1.15,2.35,1.72,5.17,1.72,8.48c0,3.95-0.72,7.59-2.16,10.92c-1.44,3.33-3.55,6.21-6.32,8.64c-2.77,2.43-6.2,4.32-10.28,5.68
		c-4.08,1.36-8.76,2.04-14.04,2.04c-2.83,0-5.59-0.25-8.28-0.76s-5.28-1.21-7.76-2.12c-2.48-0.91-4.77-1.97-6.88-3.2
		c-2.11-1.23-3.96-2.56-5.56-4l4.56-7.52c0.59-0.91,1.28-1.6,2.08-2.08c0.8-0.48,1.81-0.72,3.04-0.72c1.23,0,2.39,0.35,3.48,1.04
		c1.09,0.69,2.36,1.44,3.8,2.24c1.44,0.8,3.13,1.55,5.08,2.24c1.95,0.69,4.41,1.04,7.4,1.04c2.35,0,4.36-0.28,6.04-0.84
		c1.68-0.56,3.07-1.29,4.16-2.2c1.09-0.91,1.89-1.96,2.4-3.16c0.51-1.2,0.76-2.44,0.76-3.72c0-1.92-0.57-3.49-1.72-4.72
		c-1.15-1.23-2.67-2.29-4.56-3.2c-1.89-0.91-4.05-1.72-6.48-2.44c-2.43-0.72-4.91-1.51-7.44-2.36c-2.53-0.85-5.01-1.85-7.44-3
		c-2.43-1.15-4.59-2.6-6.48-4.36c-1.89-1.76-3.41-3.92-4.56-6.48c-1.15-2.56-1.72-5.65-1.72-9.28c0-3.36,0.67-6.56,2-9.6
		c1.33-3.04,3.29-5.69,5.88-7.96c2.59-2.27,5.81-4.08,9.68-5.44c3.87-1.36,8.33-2.04,13.4-2.04c5.65,0,10.8,0.93,15.44,2.8
		c4.64,1.87,8.51,4.32,11.6,7.36L845.64,178.27z"/>
	<path class="st0" d="M885.24,125.47v68.08h3.68c1.33,0,2.37-0.19,3.12-0.56c0.75-0.37,1.55-1.07,2.4-2.08l20.4-25.2
		c0.91-1.07,1.87-1.91,2.88-2.52c1.01-0.61,2.35-0.92,4-0.92h18.08l-25.52,30.48c-0.91,1.12-1.84,2.15-2.8,3.08
		c-0.96,0.93-2,1.75-3.12,2.44c1.12,0.8,2.11,1.73,2.96,2.8c0.85,1.07,1.71,2.21,2.56,3.44l27.36,39.84H923.4
		c-1.55,0-2.85-0.27-3.92-0.8c-1.07-0.53-2.03-1.44-2.88-2.72l-20.88-31.12c-0.8-1.23-1.6-2.03-2.4-2.4c-0.8-0.37-2-0.56-3.6-0.56
		h-4.48v37.6h-19.76V125.47H885.24z"/>
</g>
<g>
	<path class="st0" d="M539.86,85.72h23.16v8.88H529.1V36.76h10.76V85.72z"/>
	<path class="st0" d="M637.3,94.6h-8.32c-0.93,0-1.7-0.23-2.3-0.7c-0.6-0.47-1.03-1.05-1.3-1.74l-4.32-11.8H597.1l-4.32,11.8
		c-0.21,0.61-0.63,1.17-1.26,1.68c-0.63,0.51-1.39,0.76-2.3,0.76h-8.36l22.72-57.84h11L637.3,94.6z M599.86,72.76h18.44l-7.04-19.24
		c-0.32-0.85-0.67-1.86-1.06-3.02c-0.39-1.16-0.77-2.42-1.14-3.78c-0.37,1.36-0.74,2.63-1.1,3.8c-0.36,1.17-0.71,2.2-1.06,3.08
		L599.86,72.76z"/>
	<path class="st0" d="M689.56,73.26c0.39,0.92,0.77,1.85,1.14,2.78c0.37-0.96,0.76-1.91,1.16-2.84c0.4-0.93,0.83-1.83,1.28-2.68
		l17.12-32.04c0.21-0.4,0.43-0.72,0.66-0.96c0.23-0.24,0.48-0.41,0.76-0.52c0.28-0.11,0.59-0.17,0.94-0.2
		c0.35-0.03,0.76-0.04,1.24-0.04h8.12V94.6h-9.48V57.24c0-0.69,0.02-1.45,0.06-2.28c0.04-0.83,0.1-1.67,0.18-2.52l-17.48,32.8
		c-0.4,0.75-0.92,1.33-1.56,1.74c-0.64,0.41-1.39,0.62-2.24,0.62h-1.48c-0.85,0-1.6-0.21-2.24-0.62c-0.64-0.41-1.16-0.99-1.56-1.74
		l-17.72-32.92c0.11,0.88,0.18,1.74,0.22,2.58c0.04,0.84,0.06,1.62,0.06,2.34V94.6h-9.48V36.76h8.12c0.48,0,0.89,0.01,1.24,0.04
		c0.35,0.03,0.66,0.09,0.94,0.2c0.28,0.11,0.54,0.28,0.78,0.52c0.24,0.24,0.47,0.56,0.68,0.96L688.3,70.6
		C688.75,71.46,689.17,72.34,689.56,73.26z"/>
	<path class="st0" d="M749.66,94.6V36.76h19.96c3.79,0,7.02,0.36,9.7,1.08c2.68,0.72,4.88,1.75,6.6,3.08
		c1.72,1.33,2.98,2.95,3.78,4.84c0.8,1.89,1.2,4.03,1.2,6.4c0,1.36-0.2,2.66-0.6,3.9c-0.4,1.24-1.02,2.4-1.86,3.48
		s-1.91,2.06-3.2,2.94c-1.29,0.88-2.83,1.63-4.62,2.24c7.95,1.79,11.92,6.08,11.92,12.88c0,2.45-0.47,4.72-1.4,6.8
		c-0.93,2.08-2.29,3.87-4.08,5.38c-1.79,1.51-3.99,2.69-6.6,3.54s-5.6,1.28-8.96,1.28H749.66z M760.42,61.8h8.6
		c3.65,0,6.43-0.67,8.32-2s2.84-3.45,2.84-6.36c0-3.01-0.85-5.16-2.56-6.44c-1.71-1.28-4.37-1.92-8-1.92h-9.2V61.8z M760.42,69.24
		V86.2h10.92c2,0,3.67-0.24,5.02-0.72s2.43-1.12,3.24-1.92c0.81-0.8,1.4-1.73,1.76-2.8c0.36-1.07,0.54-2.2,0.54-3.4
		c0-1.25-0.2-2.38-0.6-3.38c-0.4-1-1.03-1.85-1.88-2.56c-0.85-0.71-1.95-1.25-3.28-1.62c-1.33-0.37-2.95-0.56-4.84-0.56H760.42z"/>
	<path class="st0" d="M869.14,65.68c0,4.24-0.71,8.13-2.12,11.68c-1.41,3.55-3.4,6.6-5.96,9.16c-2.56,2.56-5.64,4.55-9.24,5.96
		c-3.6,1.41-7.59,2.12-11.96,2.12h-22.08V36.76h22.08c4.37,0,8.36,0.71,11.96,2.14c3.6,1.43,6.68,3.41,9.24,5.96
		c2.56,2.55,4.55,5.59,5.96,9.14C868.43,57.55,869.14,61.44,869.14,65.68z M858.14,65.68c0-3.17-0.43-6.02-1.28-8.54
		s-2.07-4.65-3.64-6.4c-1.57-1.75-3.49-3.09-5.74-4.02c-2.25-0.93-4.79-1.4-7.62-1.4h-11.24v40.72h11.24c2.83,0,5.37-0.47,7.62-1.4
		c2.25-0.93,4.17-2.27,5.74-4.02c1.57-1.75,2.79-3.88,3.64-6.4S858.14,68.86,858.14,65.68z"/>
	<path class="st0" d="M942.38,94.6h-8.32c-0.93,0-1.7-0.23-2.3-0.7c-0.6-0.47-1.03-1.05-1.3-1.74l-4.32-11.8h-23.96l-4.32,11.8
		c-0.21,0.61-0.63,1.17-1.26,1.68c-0.63,0.51-1.39,0.76-2.3,0.76h-8.36l22.72-57.84h11L942.38,94.6z M904.94,72.76h18.44
		l-7.04-19.24c-0.32-0.85-0.67-1.86-1.06-3.02c-0.39-1.16-0.77-2.42-1.14-3.78c-0.37,1.36-0.74,2.63-1.1,3.8
		c-0.36,1.17-0.71,2.2-1.06,3.08L904.94,72.76z"/>
</g>
</svg>
